<svg width="32" height="32" viewBox="0 0 32 32" fill="none" xmlns="http://www.w3.org/2000/svg">
<rect width="32" height="32" fill="url(#paint0_linear_8_22141)"/>
<g clip-path="url(#clip0_8_22141)">
<path fill-rule="evenodd" clip-rule="evenodd" d="M27.9905 6.12559V8.84873C27.9915 9.19738 27.8832 9.53727 27.6813 9.81898C27.4794 10.1007 27.1944 10.3095 26.8679 10.4151L25.892 10.7332C25.8629 10.7428 25.8356 10.7575 25.8115 10.7766V27.6191C25.8109 27.9852 25.6677 28.336 25.4133 28.5949C25.1589 28.8537 24.8141 28.9994 24.4544 29H19.696C19.3363 28.9994 18.9915 28.8537 18.7371 28.5949C18.4827 28.336 18.3395 27.9852 18.3389 27.6191V26.0672C18.3365 26.044 18.3365 26.0205 18.3389 25.9973V22.5584V22.1945L17.1286 25.043C17.0324 25.2674 16.874 25.4585 16.6726 25.5926C16.4713 25.7268 16.2359 25.7982 15.9953 25.7982C15.7546 25.7982 15.5192 25.7268 15.3179 25.5926C15.1166 25.4585 14.9581 25.2674 14.8619 25.043L13.6516 22.1945V27.6191C13.6516 27.8005 13.6165 27.98 13.5483 28.1476C13.4801 28.3151 13.3802 28.4673 13.2541 28.5956C13.1281 28.7238 12.9785 28.8255 12.8138 28.8949C12.6492 28.9643 12.4727 29 12.2945 29H7.53855C7.1788 28.9994 6.83396 28.8537 6.57958 28.5949C6.3252 28.336 6.18201 27.9852 6.18139 27.6191V21.8861V12.0996V10.779C6.15765 10.7574 6.12927 10.7417 6.09849 10.7332L5.12267 10.4151C4.79611 10.3095 4.51116 10.1007 4.30925 9.81898C4.10735 9.53727 3.99902 9.19738 4.00001 8.84873V4.38085C4.00063 4.01483 4.14381 3.66397 4.39819 3.40515C4.65257 3.14633 4.99741 3.00064 5.35715 3H12.4082C12.6809 2.99992 12.9474 3.08362 13.1726 3.24013C13.3978 3.39664 13.5714 3.61867 13.6706 3.87719L16.0036 9.91631L18.3318 3.87719C18.4314 3.61848 18.6054 3.39636 18.831 3.23986C19.0567 3.08336 19.3235 2.99977 19.5966 3H26.6429C27.0026 3.00064 27.3474 3.14633 27.6018 3.40515C27.8562 3.66397 27.9994 4.01483 28 4.38085L27.9905 6.12559Z" fill="#160038"/>
<path fill-rule="evenodd" clip-rule="evenodd" d="M12.5508 17.4713C12.5521 17.4394 12.5638 17.4089 12.5839 17.3845C12.604 17.3601 12.6315 17.3432 12.6621 17.3363C12.6927 17.3304 12.7245 17.3353 12.752 17.3502C12.7796 17.3651 12.8013 17.3891 12.8137 17.4182L15.8667 24.5948C15.8771 24.6202 15.8947 24.6419 15.9173 24.6572C15.9398 24.6725 15.9663 24.6806 15.9934 24.6806C16.0205 24.6806 16.047 24.6725 16.0695 24.6572C16.092 24.6419 16.1097 24.6202 16.1201 24.5948L19.1826 17.4182C19.195 17.3886 19.2172 17.3643 19.2452 17.3494C19.2733 17.3344 19.3055 17.3298 19.3365 17.3363C19.3669 17.3433 19.394 17.3603 19.4138 17.3847C19.4335 17.4092 19.4447 17.4396 19.4455 17.4713V15.8663C19.446 15.8343 19.4353 15.8032 19.4154 15.7785C19.3954 15.7537 19.3675 15.737 19.3365 15.7313C19.3058 15.7242 19.2736 15.7283 19.2454 15.7428C19.2173 15.7573 19.1951 15.7814 19.1826 15.8109L16.132 22.9874C16.1215 23.0128 16.1039 23.0345 16.0813 23.0498C16.0588 23.0651 16.0323 23.0732 16.0052 23.0732C15.9782 23.0732 15.9517 23.0651 15.9291 23.0498C15.9066 23.0345 15.889 23.0128 15.8785 22.9874L12.8184 15.8109C12.8064 15.7816 12.7846 15.7576 12.7569 15.743C12.7291 15.7285 12.6973 15.7243 12.6668 15.7313C12.6357 15.737 12.6075 15.7536 12.5871 15.7783C12.5668 15.8029 12.5556 15.8341 12.5555 15.8663L12.5508 17.4713Z" fill="#D96420"/>
<path fill-rule="evenodd" clip-rule="evenodd" d="M7.28013 27.6194C7.28075 27.6895 7.3084 27.7566 7.35713 27.8062C7.40585 27.8557 7.47177 27.8839 7.54068 27.8845H12.2966C12.3649 27.8832 12.43 27.8547 12.4778 27.8052C12.5256 27.7556 12.5524 27.6889 12.5524 27.6194V23.7178L7.27539 23.6769V27.6194H7.28013ZM19.4376 27.6194C19.4376 27.6897 19.4651 27.7571 19.514 27.8069C19.5628 27.8566 19.6291 27.8845 19.6982 27.8845H24.4541C24.5232 27.8845 24.5895 27.8566 24.6384 27.8069C24.6872 27.7571 24.7147 27.6897 24.7147 27.6194V23.7178L19.4376 23.6769V27.6194Z" fill="#D96420"/>
<path fill-rule="evenodd" clip-rule="evenodd" d="M5.08794 7.24146V8.84883C5.08679 8.96066 5.1209 9.06992 5.18527 9.16057C5.24964 9.25122 5.34088 9.31849 5.44559 9.3525L6.41904 9.67059C6.65829 9.73731 6.86982 9.8812 7.02186 10.0806C7.1739 10.2801 7.25823 10.5243 7.26222 10.7767V10.9912V9.17657C7.25823 8.9242 7.1739 8.67995 7.02186 8.4805C6.86982 8.28105 6.65829 8.13717 6.41904 8.07045L5.44559 7.74512C5.34067 7.71144 5.24922 7.64426 5.1848 7.55354C5.12037 7.46281 5.08641 7.35337 5.08794 7.24146Z" fill="#D96420"/>
<path fill-rule="evenodd" clip-rule="evenodd" d="M24.7133 26.0096V9.16945C24.7177 8.91717 24.8022 8.67312 24.9541 8.47374C25.1061 8.27437 25.3174 8.13039 25.5565 8.06332L26.5299 7.74522C26.6357 7.7124 26.7282 7.64559 26.7936 7.55479C26.8589 7.46398 26.8935 7.35408 26.8923 7.24156V4.38105C26.8923 4.31075 26.8649 4.24332 26.816 4.19361C26.7672 4.14389 26.7009 4.11597 26.6318 4.11597H19.5879C19.5363 4.1165 19.4861 4.13289 19.4438 4.163C19.4015 4.1931 19.3692 4.23552 19.351 4.28466L16.1299 12.6372C16.1203 12.6636 16.1031 12.6864 16.0804 12.7025C16.0577 12.7186 16.0308 12.7272 16.0032 12.7272C15.9755 12.7272 15.9485 12.7186 15.9259 12.7025C15.9032 12.6864 15.886 12.6636 15.8764 12.6372L12.6482 4.28466C12.63 4.23552 12.5977 4.1931 12.5554 4.163C12.5131 4.13289 12.4629 4.1165 12.4113 4.11597H5.34847C5.31425 4.11597 5.28037 4.12283 5.24876 4.13615C5.21715 4.14947 5.18843 4.16899 5.16424 4.19361C5.14004 4.21822 5.12085 4.24745 5.10776 4.27961C5.09466 4.31177 5.08792 4.34624 5.08792 4.38105V7.24156C5.0867 7.35408 5.12135 7.46398 5.18669 7.55479C5.25202 7.64559 5.34451 7.7124 5.45031 7.74522L6.42376 8.06332C6.66301 8.13004 6.87453 8.27393 7.02657 8.47338C7.1786 8.67282 7.26295 8.91707 7.26694 9.16945V26.012C7.26757 26.0819 7.29529 26.1487 7.34408 26.1979C7.39287 26.247 7.45878 26.2746 7.52747 26.2746H12.2834C12.3525 26.2746 12.4188 26.2467 12.4677 26.197C12.5165 26.1473 12.544 26.0799 12.544 26.0096V15.8665C12.544 15.8343 12.5552 15.8031 12.5756 15.7784C12.5959 15.7538 12.6241 15.7372 12.6553 15.7315C12.6857 15.7245 12.7176 15.7286 12.7453 15.7432C12.773 15.7577 12.7948 15.7817 12.8069 15.811L15.867 22.9876C15.8774 23.013 15.895 23.0347 15.9176 23.05C15.9401 23.0652 15.9666 23.0734 15.9937 23.0734C16.0208 23.0734 16.0472 23.0652 16.0698 23.05C16.0923 23.0347 16.1099 23.013 16.1204 22.9876L19.1829 15.811C19.1954 15.7816 19.2176 15.7575 19.2457 15.7429C19.2738 15.7284 19.3061 15.7244 19.3368 15.7315C19.3678 15.7372 19.3957 15.7539 19.4156 15.7786C19.4356 15.8033 19.4463 15.8345 19.4458 15.8665V26.0096C19.4458 26.0799 19.4732 26.1473 19.5221 26.197C19.5709 26.2467 19.6372 26.2746 19.7063 26.2746H24.4622C24.5297 26.2722 24.5936 26.2431 24.6404 26.1937C24.6872 26.1442 24.7133 26.0782 24.7133 26.0096Z" fill="url(#paint1_linear_8_22141)"/>
<path fill-rule="evenodd" clip-rule="evenodd" d="M19.8455 21.92C20.6792 23.1852 24.1088 22.5466 24.3006 18.98L24.7127 19.3439V26.0095C24.7127 26.0799 24.6853 26.1473 24.6364 26.197C24.5876 26.2467 24.5213 26.2746 24.4522 26.2746H19.6963C19.6617 26.276 19.6272 26.2701 19.595 26.2572C19.5628 26.2444 19.5335 26.2249 19.5091 26.2C19.4846 26.1751 19.4655 26.1453 19.4528 26.1126C19.4402 26.0798 19.4344 26.0447 19.4357 26.0095L19.8455 21.92Z" fill="url(#paint2_linear_8_22141)"/>
<path fill-rule="evenodd" clip-rule="evenodd" d="M14.7358 20.3173C15.6714 20.1004 16.6306 19.8715 17.5425 19.6473L16.9243 21.1125C16.3803 21.2794 15.845 21.4748 15.3209 21.6981L14.7358 20.3173Z" fill="#FBAA19"/>
<path fill-rule="evenodd" clip-rule="evenodd" d="M7.68953 21.9994C7.68953 25.4407 12.147 23.5345 12.147 21.2765L12.5568 22.4332V26.007C12.5568 26.0774 12.5294 26.1448 12.4805 26.1945C12.4316 26.2442 12.3654 26.2721 12.2963 26.2721H7.54033C7.47164 26.2721 7.40572 26.2445 7.35692 26.1953C7.30813 26.1462 7.28041 26.0793 7.27979 26.0095V22.3802L7.68953 21.9994Z" fill="url(#paint3_linear_8_22141)"/>
<path fill-rule="evenodd" clip-rule="evenodd" d="M7.68603 18.498V23.7636C7.68728 24.3179 7.90427 24.8493 8.28955 25.2413C8.67483 25.6333 9.19702 25.8541 9.74189 25.8553H11.0469C11.3376 25.8547 11.6161 25.7369 11.8217 25.5278C12.0272 25.3187 12.1429 25.0353 12.1435 24.7396V15.8665C12.1447 15.7388 12.1888 15.6154 12.2685 15.5168C12.3482 15.4181 12.4586 15.3502 12.5815 15.3243C12.7044 15.2984 12.8323 15.3161 12.9439 15.3744C13.0555 15.4327 13.1442 15.5281 13.1951 15.6447L15.4902 21.0452C15.5323 21.1456 15.6024 21.2312 15.6919 21.2914C15.7814 21.3516 15.8863 21.3836 15.9935 21.3836C16.1008 21.3836 16.2057 21.3516 16.2952 21.2914C16.3847 21.2312 16.4548 21.1456 16.4968 21.0452L18.7943 15.6447C18.8443 15.5272 18.9326 15.4308 19.0443 15.3718C19.1561 15.3127 19.2844 15.2947 19.4077 15.3208C19.5309 15.3468 19.6416 15.4153 19.721 15.5147C19.8004 15.6141 19.8437 15.7384 19.8435 15.8665V24.742C19.8442 25.0377 19.9599 25.3211 20.1654 25.5302C20.3709 25.7393 20.6495 25.8571 20.9401 25.8577H21.9681C22.5858 25.8565 23.1779 25.6062 23.6147 25.1618C24.0515 24.7174 24.2974 24.115 24.2987 23.4864V16.1436C24.2987 14.1747 23.5194 12.8107 21.582 12.871C19.7085 12.9312 17.2927 14.2398 15.99 15.1965C15.3221 13.3819 14.396 12.7144 12.6741 12.9818C9.77742 13.4301 7.68603 15.423 7.70024 18.498H7.68603ZM24.7155 9.16945C24.7155 14.7828 24.7155 20.3962 24.7155 26.0096C24.7155 26.0799 24.6881 26.1473 24.6392 26.197C24.5904 26.2467 24.5241 26.2746 24.455 26.2746H19.6967C19.6276 26.2746 19.5613 26.2467 19.5125 26.197C19.4636 26.1473 19.4362 26.0799 19.4362 26.0096V15.8665C19.4367 15.8345 19.426 15.8033 19.406 15.7786C19.3861 15.7539 19.3581 15.7372 19.3272 15.7315C19.2964 15.7244 19.2642 15.7284 19.2361 15.7429C19.208 15.7575 19.1857 15.7816 19.1733 15.811L16.1226 22.9876C16.1122 23.013 16.0946 23.0347 16.072 23.05C16.0495 23.0652 16.023 23.0734 15.9959 23.0734C15.9688 23.0734 15.9424 23.0652 15.9198 23.05C15.8973 23.0347 15.8797 23.013 15.8692 22.9876L12.8186 15.811C12.8065 15.7817 12.7847 15.7577 12.757 15.7432C12.7293 15.7286 12.6974 15.7245 12.667 15.7315C12.6358 15.7372 12.6076 15.7538 12.5873 15.7784C12.5669 15.8031 12.5557 15.8343 12.5557 15.8665V26.0096C12.5557 26.0799 12.5282 26.1473 12.4794 26.197C12.4305 26.2467 12.3642 26.2746 12.2951 26.2746H7.53919C7.4705 26.2746 7.40457 26.247 7.35578 26.1979C7.30699 26.1487 7.27927 26.0819 7.27864 26.012C7.27864 20.397 7.27864 14.7828 7.27864 9.16945C7.27465 8.91707 7.1903 8.67282 7.03827 8.47338C6.88623 8.27393 6.67471 8.13004 6.43546 8.06332L5.44543 7.74522C5.33963 7.7124 5.24714 7.64559 5.1818 7.55479C5.11647 7.46398 5.08182 7.35408 5.08304 7.24156V4.38105C5.08304 4.34624 5.08978 4.31177 5.10287 4.27961C5.11597 4.24745 5.13516 4.21822 5.15935 4.19361C5.18355 4.16899 5.21227 4.14947 5.24388 4.13615C5.27549 4.12283 5.30937 4.11597 5.34358 4.11597H12.3946C12.4462 4.1165 12.4964 4.13289 12.5387 4.163C12.581 4.1931 12.6133 4.23552 12.6315 4.28466L14.486 9.06341L15.7342 12.2926L16.0208 12.7264C16.0438 12.7226 16.0655 12.7125 16.0834 12.6972C16.1013 12.682 16.1149 12.6621 16.1226 12.6396L19.3438 4.28706C19.3619 4.23792 19.3943 4.19552 19.4365 4.16541C19.4788 4.1353 19.529 4.11891 19.5806 4.11838H26.6269C26.696 4.11838 26.7623 4.14631 26.8111 4.19602C26.86 4.24573 26.8875 4.31315 26.8875 4.38346V7.24397C26.8887 7.3565 26.854 7.46639 26.7887 7.5572C26.7234 7.648 26.6309 7.71481 26.5251 7.74763L25.5516 8.06573C25.3135 8.13452 25.1033 8.27896 24.9516 8.47796C24.7999 8.67696 24.7147 8.9201 24.7084 9.17186L24.7155 9.16945ZM24.3034 9.16945C24.3071 8.82832 24.419 8.49755 24.6227 8.22652C24.8263 7.95549 25.1106 7.75876 25.4332 7.6657C26.3427 7.37892 26.4824 6.94273 26.4824 6.49209V5.93059C26.4788 5.56211 26.3334 5.20975 26.0775 4.94895C25.8217 4.68816 25.4756 4.53967 25.1134 4.53528C23.7752 4.50154 22.6668 4.53528 21.3712 4.53528C20.874 4.52946 20.3871 4.67912 19.9762 4.964C19.5653 5.24888 19.2503 5.65527 19.0738 6.1282L18.773 6.91141C18.1264 8.59831 18.0364 11.0226 20.3054 11.3383C22.1007 11.5793 24.3034 11.1287 24.3034 9.16945ZM13.9886 8.914L12.9109 6.1282C12.7344 5.65527 12.4194 5.24888 12.0085 4.964C11.5976 4.67912 11.1107 4.52946 10.6135 4.53528H6.86653C6.50342 4.53655 6.15558 4.68405 5.89905 4.94551C5.64251 5.20698 5.49815 5.56115 5.49753 5.93059V6.49209C5.49753 6.94032 5.63727 7.37892 6.54914 7.6657C6.87127 7.7592 7.15509 7.95612 7.35825 8.22711C7.56142 8.4981 7.67306 8.82863 7.67655 9.16945V9.89241C7.67655 11.8203 9.24687 12.2878 10.9119 12.3529C13.4391 12.4372 14.8034 11.0275 13.9886 8.914Z" fill="url(#paint4_linear_8_22141)"/>
<path fill-rule="evenodd" clip-rule="evenodd" d="M26.8956 7.24146V8.84883C26.896 8.96218 26.8602 9.0726 26.7935 9.16344C26.7269 9.25428 26.633 9.32063 26.5261 9.3525L25.5527 9.67059C25.3136 9.73766 25.1023 9.88164 24.9503 10.081C24.7983 10.2804 24.7138 10.5244 24.7095 10.7767V10.9912V9.17657C24.7138 8.9243 24.7983 8.68024 24.9503 8.48087C25.1023 8.2815 25.3136 8.13752 25.5527 8.07045L26.5261 7.75234C26.6344 7.72051 26.7293 7.65317 26.7962 7.56078C26.863 7.46839 26.8979 7.35613 26.8956 7.24146Z" fill="#D96420"/>
</g>
<defs>
<linearGradient id="paint0_linear_8_22141" x1="16" y1="0" x2="16" y2="32" gradientUnits="userSpaceOnUse">
<stop stop-color="#9E45DB"/>
<stop offset="1" stop-color="#600CC0"/>
</linearGradient>
<linearGradient id="paint1_linear_8_22141" x1="15.4169" y1="26.0168" x2="15.9613" y2="7.5096" gradientUnits="userSpaceOnUse">
<stop stop-color="#F58220"/>
<stop offset="1" stop-color="#FFCB11"/>
</linearGradient>
<linearGradient id="paint2_linear_8_22141" x1="22.0742" y1="21.2838" x2="22.0742" y2="25.9879" gradientUnits="userSpaceOnUse">
<stop stop-color="#FDB717"/>
<stop offset="1" stop-color="#F8991D"/>
</linearGradient>
<linearGradient id="paint3_linear_8_22141" x1="9.9183" y1="22.8574" x2="9.9183" y2="26.0769" gradientUnits="userSpaceOnUse">
<stop stop-color="#FDB717"/>
<stop offset="1" stop-color="#F8991D"/>
</linearGradient>
<linearGradient id="paint4_linear_8_22141" x1="16.0018" y1="21.2453" x2="15.992" y2="9.16222" gradientUnits="userSpaceOnUse">
<stop stop-color="#FFCB11"/>
<stop offset="0.4" stop-color="#FBE33A"/>
<stop offset="1" stop-color="white"/>
</linearGradient>
<clipPath id="clip0_8_22141">
<rect width="24" height="26" fill="white" transform="translate(4 3)"/>
</clipPath>
</defs>
</svg>
